<svg xmlns="http://www.w3.org/2000/svg" viewBox="0 0 139.48 129.24"><defs><style>.cls-1{fill:#13110c;}.cls-1,.cls-2{opacity:0.39;}.cls-3{fill:silver;}.cls-4{fill:#363636;}</style></defs><g id="Calque_2" data-name="Calque 2"><g id="Calque_1-2" data-name="Calque 1"><path class="cls-1" d="M34.23,50.57h2.4v40.6A12.54,12.54,0,0,0,36.94,94a8.51,8.51,0,0,0,.9,2.34A5.07,5.07,0,0,0,39.24,98a3.21,3.21,0,0,0,3.68,0,4.81,4.81,0,0,0,1.39-1.59A8.19,8.19,0,0,0,45.19,94a12.54,12.54,0,0,0,.31-2.86V75.75h1.06V91.17a15.78,15.78,0,0,1-.36,3.44,8.72,8.72,0,0,1-1.11,2.83,5.77,5.77,0,0,1-1.94,1.93,5.46,5.46,0,0,1-2.84.7,4.81,4.81,0,0,1-2.61-.7,6,6,0,0,1-1.91-1.94,9.53,9.53,0,0,1-1.16-2.87,14.44,14.44,0,0,1-.4-3.48Z"/><path class="cls-1" d="M49.37,81.19h2.19v3.34a9.56,9.56,0,0,1,2.07-2.78,3.32,3.32,0,0,1,2.19-.93,1.64,1.64,0,0,1,1.08.43,3.73,3.73,0,0,1,.88,1.19,7.12,7.12,0,0,1,.59,1.76,10,10,0,0,1,.22,2.16V99.51H56.4V87a6,6,0,0,0-.49-2.74,1.45,1.45,0,0,0-1.26-.94,1.66,1.66,0,0,0-.74.19,3.52,3.52,0,0,0-.79.53,8.4,8.4,0,0,0-1.56,1.92V99.51H49.37Z"/><path class="cls-1" d="M62.27,71.81a1,1,0,0,1,.49.14,1.38,1.38,0,0,1,.4.4,2.08,2.08,0,0,1,.27.58,2.28,2.28,0,0,1,.1.7,2.34,2.34,0,0,1-.1.71,2.22,2.22,0,0,1-.27.58,1.24,1.24,0,0,1-.4.39.88.88,0,0,1-.49.15.85.85,0,0,1-.48-.15,1.21,1.21,0,0,1-.39-.39,1.72,1.72,0,0,1-.27-.58,2.35,2.35,0,0,1-.11-.71,2.28,2.28,0,0,1,.11-.7,1.64,1.64,0,0,1,.27-.58,1.36,1.36,0,0,1,.39-.4A.92.92,0,0,1,62.27,71.81Zm-1.06,10,1.53-1h.64V99.51H61.21Z"/><path class="cls-1" d="M69.56,98.64a1.62,1.62,0,0,0,.83-.23,2.18,2.18,0,0,0,.65-.6,2.93,2.93,0,0,0,.42-.87,3.18,3.18,0,0,0,.16-1,4.05,4.05,0,0,0-.25-1.46,4.44,4.44,0,0,0-.67-1.13,6.32,6.32,0,0,0-1-.91l-1.08-.84c-.36-.29-.72-.6-1.08-.94a6,6,0,0,1-1-1.16A5.86,5.86,0,0,1,66,88a7.2,7.2,0,0,1-.25-2,6.94,6.94,0,0,1,.28-2,5.09,5.09,0,0,1,.78-1.62A3.53,3.53,0,0,1,68,81.2a3.06,3.06,0,0,1,1.52-.38,4.19,4.19,0,0,1,1,.12,2.61,2.61,0,0,1,.94.5,4.75,4.75,0,0,1,.91,1,12.05,12.05,0,0,1,1,1.74l-.8,1.19a7.88,7.88,0,0,0-1.4-2.54A2.28,2.28,0,0,0,69.45,82a1.89,1.89,0,0,0-.85.19,2,2,0,0,0-.66.53,2.27,2.27,0,0,0-.43.78,2.9,2.9,0,0,0-.16.94,3.54,3.54,0,0,0,.28,1.43A4.36,4.36,0,0,0,68.36,87a6.89,6.89,0,0,0,1,.91l1.18.85c.4.29.8.6,1.18.93a6.26,6.26,0,0,1,1,1.15,5.79,5.79,0,0,1,.73,1.52,6.46,6.46,0,0,1,.28,2,8.84,8.84,0,0,1-.26,2.17,5.46,5.46,0,0,1-.79,1.76,3.87,3.87,0,0,1-1.31,1.17,3.91,3.91,0,0,1-1.85.42,4.32,4.32,0,0,1-1-.12,3.15,3.15,0,0,1-1-.5,5,5,0,0,1-1-1,8.51,8.51,0,0,1-1-1.74l.89-1.35a16.24,16.24,0,0,0,.77,1.6,6.59,6.59,0,0,0,.74,1.07,2.73,2.73,0,0,0,.78.62A2,2,0,0,0,69.56,98.64Z"/><path class="cls-1" d="M29.06,127.5a4.4,4.4,0,0,1-2.47-.75,6.69,6.69,0,0,1-2-2,10.65,10.65,0,0,1-1.28-3,14.13,14.13,0,0,1-.46-3.69,15.63,15.63,0,0,1,.46-3.88A11.48,11.48,0,0,1,24.63,111a6.85,6.85,0,0,1,2-2.13,4.28,4.28,0,0,1,2.47-.78,4.56,4.56,0,0,1,2.47.71,6.62,6.62,0,0,1,1.95,2,10.14,10.14,0,0,1,1.29,2.92,13.3,13.3,0,0,1,.46,3.58,16.53,16.53,0,0,1-.46,4,12.19,12.19,0,0,1-1.29,3.26,7,7,0,0,1-1.95,2.21A4.13,4.13,0,0,1,29.06,127.5Zm.44-1.38a1.72,1.72,0,0,0,1.25-.56,4.61,4.61,0,0,0,1-1.51,9.56,9.56,0,0,0,.65-2.22,15.17,15.17,0,0,0,.23-2.67,30.15,30.15,0,0,0-.22-3.8,13.87,13.87,0,0,0-.7-3.08,5.38,5.38,0,0,0-1.28-2.07,2.63,2.63,0,0,0-1.92-.76,1.6,1.6,0,0,0-1.13.54,4.69,4.69,0,0,0-1,1.48,10.41,10.41,0,0,0-.66,2.18,13.35,13.35,0,0,0-.25,2.66,25.53,25.53,0,0,0,.27,3.82,15,15,0,0,0,.78,3.12,6,6,0,0,0,1.26,2.1A2.3,2.3,0,0,0,29.5,126.12Z"/><g class="cls-2"><path class="cls-3" d="M35.31,125.4V113.67h5.27v1.67a1.83,1.83,0,0,1,.82-1.26,3.43,3.43,0,0,1,1.8-.41h2.65a6.69,6.69,0,0,1,3.69,1A2.8,2.8,0,0,1,51.09,117v8.39H45.85V117a1.41,1.41,0,0,0-.77-1.18,3.42,3.42,0,0,0-1.88-.49,3.38,3.38,0,0,0-1.85.49,1.41,1.41,0,0,0-.77,1.18v8.39Z"/></g><g class="cls-2"><path d="M78.65,20.16l.15-.08-.2,0Z"/><path d="M52.31,0C29,0,18.87,12,18.87,12l1.37,2c-2.55,2.29-5,4.72-7.35,7.21A45.4,45.4,0,0,0,.13,47.94a8.19,8.19,0,0,0,.76,5.43c.86,1.44,1.78,3,.7,4.8a.44.44,0,0,0,0,.23c.17,3,.22,5.94.55,8.88A33.24,33.24,0,0,0,5.79,78.34a5.93,5.93,0,0,1,.63,1.86A31.68,31.68,0,0,0,9.6,91.76,3.87,3.87,0,0,0,10.47,93c2.81,2.23,5.54,4.58,8.82,6.15a5.11,5.11,0,0,1,3,2.92,1.48,1.48,0,0,0,1.23.72,3.23,3.23,0,0,1,2.37.67A3.82,3.82,0,0,0,31.76,102a9.26,9.26,0,0,0,.91-3.71c0-4.33,0-8.67-.16-13a113.64,113.64,0,0,0-4.28-26.54,32.28,32.28,0,0,0-2.09-5.69c-1.48-2.93-3.93-3-6.49-1.34a10.33,10.33,0,0,1-3,1.37c-.5.14-1.22.69-1.26,1.11a3.73,3.73,0,0,1-2.11,2.89c-1.63,1-2.76,2.25-2.71,4.3a1.4,1.4,0,0,1-.47,1,1,1,0,0,1-1,0c-.81-.77-1.53-1.64-2-2.18.28-2.16.55-4,.72-5.92a2.35,2.35,0,0,0-.47-1.18,20.46,20.46,0,0,0-1.18-2A7.15,7.15,0,0,1,5.1,46,34,34,0,0,1,13,27.87c1.6-2,3.45-3.72,5.24-5.52a23.34,23.34,0,0,1,5-4.19l1.07,1.53S35.81,8,52.31,8c11.21,0,19.34,5.63,23.41,9.24A32.06,32.06,0,0,1,86,15.47C84.05,12.84,73.28,0,52.31,0Z"/></g><path class="cls-1" d="M19.71,113.49a12.23,12.23,0,0,0-1.37-2c-.52-.62-1-1.22-1.57-1.79L15.2,108a12.31,12.31,0,0,1-1.37-1.74,8.81,8.81,0,0,1-1-1.91,6.31,6.31,0,0,1-.37-2.22,8,8,0,0,1,.18-1.69,5.51,5.51,0,0,1,.53-1.48,3.31,3.31,0,0,1,.89-1.06,2,2,0,0,1,1.26-.41,2.38,2.38,0,0,1,1.44.46,4,4,0,0,1,1.14,1.29,9.42,9.42,0,0,1,.85,2,19,19,0,0,1,.58,2.58l1.31-1.21a17.5,17.5,0,0,0-.82-3.27l-.38-.2a30.93,30.93,0,0,1-5.37-3.42,3.78,3.78,0,0,0-.75.38,5.16,5.16,0,0,0-1.55,1.74,8.91,8.91,0,0,0-1,2.61,15.45,15.45,0,0,0-.33,3.28,12.3,12.3,0,0,0,.36,3.13,11.25,11.25,0,0,0,.94,2.45,11.69,11.69,0,0,0,1.33,2q.75.9,1.53,1.71l1.53,1.63a11.2,11.2,0,0,1,1.33,1.73,9.1,9.1,0,0,1,.94,2,8,8,0,0,1,.36,2.51,7.48,7.48,0,0,1-.26,2.06,5.49,5.49,0,0,1-.69,1.52,3.07,3.07,0,0,1-1,.93,2.32,2.32,0,0,1-1.12.3,2.47,2.47,0,0,1-1.39-.43A4.05,4.05,0,0,1,13.2,124a8.84,8.84,0,0,1-.94-2,16.37,16.37,0,0,1-.64-2.69l-1.37,1.15a20.23,20.23,0,0,0,.77,3,9.07,9.07,0,0,0,1.13,2.27,4.57,4.57,0,0,0,1.51,1.41,3.82,3.82,0,0,0,1.95.49A4,4,0,0,0,18,127a5.6,5.6,0,0,0,1.71-1.89,10.12,10.12,0,0,0,1-2.81,17,17,0,0,0,.34-3.44,11,11,0,0,0-.37-2.92A11.87,11.87,0,0,0,19.71,113.49Z"/><g class="cls-2"><path class="cls-4" d="M115.87,31.09c-7-10-16.48-15.55-29.82-15.62-4.44-.17-9.51,1.22-14.44,3.13A27.14,27.14,0,0,0,56.4,32.31c-2.09,4.29-3,8.82-1.67,13.49C56.59,52.4,63.58,56.69,70.88,56a13.25,13.25,0,0,0,7.92-3.22c2.79-2.5,4.37-5.64,3.9-9.45a11.09,11.09,0,0,0-13.53-9.26,22.86,22.86,0,0,1-4,.85c-1.89.11-3.45-1.84-2.79-3.44C63.52,28.67,65,26,67.6,24.15c4.33-3,9.34-4.14,14.49-4.39a19.17,19.17,0,0,1,6.82.87c7.37,2.49,11.18,8.13,12.44,15.52a53.64,53.64,0,0,1-.47,20.43c-2.78,13-9.1,24-18,33.7-6.51,7-14.32,12.45-22.22,17.75-3,2-5.87,4-8.85,5.9-1.36.88-.66,1.91-.27,2.85s1.13.47,1.73.17c9.15-4.53,18.19-9.23,26.93-14.5,0-1.75.39-3,1.6-3.41.79-.26,1.53.15,2.25,1q2.5-1.57,5-3.22a75.25,75.25,0,0,0,24.87-26.79c4.36-8,7.44-16.44,6.18-25.85C119.4,39.6,118.59,35,115.87,31.09Z"/><path class="cls-4" d="M132.33,53.11a7.09,7.09,0,0,0-7.26,7.15,7,7,0,0,0,7.25,7.13,7.11,7.11,0,0,0,7.15-7.26A7.22,7.22,0,0,0,132.33,53.11Z"/><path class="cls-4" d="M132.3,39.54a7.15,7.15,0,1,0-.1-14.3,7.15,7.15,0,1,0,.1,14.3Z"/><path class="cls-3" d="M74.83,112.23c-1.68.57-1.31,3.2-.58,6.18L79.09,117C77.92,114.15,76.69,111.6,74.83,112.23Z"/><path class="cls-3" d="M96.1,129.2c2.68-.82.16-9.37-1.75-16.81l-5,1.51C91.6,121.87,93.75,129.91,96.1,129.2Z"/><path class="cls-3" d="M83.85,123.29c1.48-.4.75-3.63-.43-7.62L79.09,117C80.45,120.24,81.73,123.87,83.85,123.29Z"/><path class="cls-3" d="M74.76,128.28c2.27-.77.53-5.66-.51-9.87l-5.45,1.64C70.63,124.07,72.48,129.06,74.76,128.28Z"/><path class="cls-3" d="M102.67,114.81c3.17-.84-1.51-4.37,2.7-5.72l-5.8,1.74C100.54,113.26,101.52,115.11,102.67,114.81Z"/><path class="cls-3" d="M93.57,101.29c-1.75.54-.66,5.5.78,11.1l5.22-1.56C97.87,106.56,96.17,100.5,93.57,101.29Z"/><path class="cls-3" d="M64.8,115.29c-2.23.69-1.58,4-1.49,6.4l5.49-1.64C67.51,117.22,66.22,114.86,64.8,115.29Z"/><path class="cls-3" d="M62.4,124.24c.83-.21,1-1.25.91-2.55l-3.9,1.16C60.37,123.73,61.32,124.51,62.4,124.24Z"/><path class="cls-3" d="M52.65,124.88l-1.56.47S50.85,125.54,52.65,124.88Z"/><path class="cls-3" d="M55.58,121c-2.7.69-.77,3.1-2.77,3.84l-.16.06,6.76-2C58.25,121.79,57.06,120.6,55.58,121Z"/><path class="cls-3" d="M81.75,99c-1.21.4-1.64,1.66-1.6,3.41.07,3.45,1.95,8.79,3.27,13.22l5.89-1.77c-1.65-5.78-3.38-11.5-5.31-13.83C83.28,99.19,82.54,98.78,81.75,99Z"/></g></g></g></svg>